<svg width="17" height="17" viewBox="0 0 17 17" fill="none" xmlns="http://www.w3.org/2000/svg">
<path d="M15.8476 15.8872C15.887 15.9254 15.9183 15.971 15.9397 16.0215C15.9611 16.0721 15.9721 16.1263 15.9721 16.1812C15.9721 16.236 15.9611 16.2903 15.9397 16.3408C15.9183 16.3913 15.887 16.437 15.8476 16.4752C15.8095 16.5145 15.7638 16.5458 15.7133 16.5672C15.6628 16.5886 15.6085 16.5996 15.5536 16.5996C15.4988 16.5996 15.4445 16.5886 15.394 16.5672C15.3435 16.5458 15.2978 16.5145 15.2596 16.4752L7.99385 9.21987L0.728054 16.4752C0.68988 16.5145 0.644187 16.5458 0.593685 16.5672C0.543183 16.5886 0.488902 16.5996 0.434062 16.5996C0.379222 16.5996 0.324941 16.5886 0.274439 16.5672C0.223937 16.5458 0.178244 16.5145 0.14007 16.4752C0.100698 16.437 0.0693948 16.3913 0.0480176 16.3408C0.0266405 16.2903 0.015625 16.236 0.015625 16.1812C0.015625 16.1263 0.0266405 16.0721 0.0480176 16.0215C0.0693948 15.971 0.100698 15.9254 0.14007 15.8872L7.39537 8.62138L0.14007 1.35559C0.0794118 1.27471 0.0499626 1.17467 0.0571293 1.07382C0.064296 0.97298 0.107597 0.878105 0.179084 0.806619C0.250571 0.735132 0.345445 0.691831 0.446288 0.684664C0.547131 0.677497 0.647176 0.706946 0.728054 0.767605L7.99385 8.0229L15.2596 0.767605C15.2957 0.719467 15.3418 0.679649 15.3946 0.650847C15.4474 0.622045 15.5058 0.604932 15.5659 0.600666C15.6259 0.5964 15.6861 0.605082 15.7425 0.626123C15.7989 0.647164 15.8501 0.680073 15.8926 0.722621C15.9352 0.76517 15.9681 0.816364 15.9891 0.872738C16.0102 0.929112 16.0188 0.989349 16.0146 1.04937C16.0103 1.10939 15.9932 1.1678 15.9644 1.22063C15.9356 1.27346 15.8958 1.31948 15.8476 1.35559L8.59233 8.62138L15.8476 15.8872Z" fill="black"/>
</svg>
