<svg width="32" height="32" viewBox="0 0 32 32" fill="none" xmlns="http://www.w3.org/2000/svg">
<path d="M16 0C12.8355 0 9.74207 0.938383 7.11088 2.69649C4.4797 4.45459 2.42894 6.95345 1.21793 9.87706C0.00693255 12.8007 -0.309921 16.0177 0.307443 19.1214C0.924806 22.2251 2.44866 25.0761 4.6863 27.3137C6.92394 29.5513 9.77486 31.0752 12.8786 31.6926C15.9823 32.3099 19.1993 31.9931 22.1229 30.7821C25.0466 29.5711 27.5454 27.5203 29.3035 24.8891C31.0616 22.2579 32 19.1645 32 16C31.9959 11.7578 30.3089 7.69049 27.3092 4.69079C24.3095 1.69109 20.2422 0.00407318 16 0V0ZM16 29.5385C13.3223 29.5385 10.7048 28.7444 8.47844 27.2568C6.25205 25.7692 4.51679 23.6548 3.4921 21.1809C2.4674 18.7071 2.1993 15.985 2.72168 13.3588C3.24407 10.7326 4.53348 8.32025 6.42687 6.42686C8.32026 4.53347 10.7326 3.24406 13.3588 2.72168C15.985 2.19929 18.7071 2.4674 21.1809 3.49209C23.6548 4.51679 25.7692 6.25204 27.2568 8.47843C28.7444 10.7048 29.5385 13.3223 29.5385 16C29.5344 19.5894 28.1067 23.0306 25.5686 25.5686C23.0306 28.1067 19.5894 29.5344 16 29.5385V29.5385ZM21.8 20.0461C22.0311 20.2795 22.1608 20.5946 22.1608 20.9231C22.1608 21.2515 22.0311 21.5666 21.8 21.8C21.5648 22.0275 21.2503 22.1546 20.9231 22.1546C20.5958 22.1546 20.2814 22.0275 20.0462 21.8L16 17.7385L11.9538 21.8C11.7186 22.0275 11.4042 22.1546 11.0769 22.1546C10.7497 22.1546 10.4353 22.0275 10.2 21.8C9.96889 21.5666 9.83923 21.2515 9.83923 20.9231C9.83923 20.5946 9.96889 20.2795 10.2 20.0461L14.2615 16L10.2 11.9538C10.0037 11.7147 9.90344 11.4111 9.91862 11.1021C9.9338 10.7931 10.0634 10.5009 10.2821 10.2821C10.5009 10.0634 10.7932 9.93379 11.1021 9.91861C11.4111 9.90344 11.7147 10.0037 11.9538 10.2L16 14.2615L20.0462 10.2C20.2853 10.0037 20.5889 9.90344 20.8979 9.91861C21.2068 9.93379 21.4991 10.0634 21.7179 10.2821C21.9366 10.5009 22.0662 10.7931 22.0814 11.1021C22.0966 11.4111 21.9963 11.7147 21.8 11.9538L17.7385 16L21.8 20.0461Z" fill="white"/>
</svg>
